<?xml version="1.0" encoding="iso-8859-1"?>
<!-- Generator: Adobe Illustrator 19.0.0, SVG Export Plug-In . SVG Version: 6.00 Build 0)  -->
<svg version="1.1" id="Layer_1" xmlns="http://www.w3.org/2000/svg" xmlns:xlink="http://www.w3.org/1999/xlink" x="0px" y="0px"
	 viewBox="0 0 512 512" style="enable-background:new 0 0 512 512;" xml:space="preserve">
<circle style="fill:#FFC61B;" cx="256" cy="256" r="256"/>
<path style="fill:#EAA22F;" d="M512,256c0-0.896-0.024-1.786-0.034-2.681L391.944,133.298L255.998,285.306l-136.863,92.482
	l134.177,134.177c0.896,0.009,1.788,0.034,2.686,0.034C397.384,512,512,397.384,512,256z"/>
<g>
	<path style="fill:#FFFFFF;" d="M378.54,384H133.458c-10.869,0-19.682-8.811-19.682-19.682V147.68
		c0-10.869,8.811-19.68,19.682-19.68H378.54c10.869,0,19.682,8.811,19.682,19.68v216.638C398.222,375.189,389.411,384,378.54,384z"
		/>
	<path style="fill:#FFFFFF;" d="M133.458,128c-10.869,0-19.68,8.811-19.68,19.682V364.32c0,10.869,8.811,19.682,19.682,19.682
		h122.397V128H133.458z"/>
</g>
<path style="fill:#D0D1D3;" d="M378.54,128H255.855v256H378.54c10.869,0,19.682-8.811,19.682-19.682V147.682
	C398.222,136.811,389.411,128,378.54,128z"/>
<g>
	<path style="fill:#A6A8AA;" d="M369.774,361.806L369.774,361.806c-1.427,0-2.586-1.158-2.586-2.586l0.003-186.182
		c0-1.427,1.158-2.586,2.586-2.586l0,0c1.427,0,2.586,1.158,2.586,2.586l-0.003,186.182
		C372.36,360.648,371.202,361.806,369.774,361.806z"/>
	<path style="fill:#A6A8AA;" d="M341.33,361.806L341.33,361.806c-1.427,0-2.586-1.158-2.586-2.586l0.003-186.182
		c0-1.427,1.158-2.586,2.586-2.586l0,0c1.427,0,2.586,1.158,2.586,2.586l-0.003,186.182
		C343.916,360.648,342.757,361.806,341.33,361.806z"/>
	<path style="fill:#A6A8AA;" d="M312.889,361.806L312.889,361.806c-1.427,0-2.586-1.158-2.586-2.586l0.003-186.182
		c0-1.427,1.158-2.586,2.586-2.586l0,0c1.427,0,2.586,1.158,2.586,2.586l-0.003,186.182
		C315.475,360.648,314.316,361.806,312.889,361.806z"/>
	<path style="fill:#A6A8AA;" d="M284.444,361.806L284.444,361.806c-1.427,0-2.586-1.158-2.586-2.586l0.003-186.182
		c0-1.427,1.158-2.586,2.586-2.586l0,0c1.427,0,2.586,1.158,2.586,2.586l-0.003,186.182
		C287.03,360.648,285.872,361.806,284.444,361.806z"/>
</g>
<path style="fill:#D0D1D3;" d="M256,361.806L256,361.806c-1.427,0-2.586-1.158-2.586-2.586l0.003-186.182
	c0-1.427,1.158-2.586,2.586-2.586l0,0c1.427,0,2.586,1.158,2.586,2.586l-0.003,186.182C258.586,360.648,257.427,361.806,256,361.806
	z"/>
<path style="fill:#A6A8AA;" d="M256.003,170.453c-0.05,0-0.097,0.012-0.147,0.016v191.324c0.048,0.003,0.095,0.014,0.143,0.014
	c1.427,0,2.586-1.158,2.586-2.586l0.003-186.182C258.589,171.611,257.431,170.453,256.003,170.453z"/>
<g>
	<path style="fill:#D0D1D3;" d="M227.556,361.806L227.556,361.806c-1.427,0-2.586-1.158-2.586-2.586l0.003-186.182
		c0-1.427,1.158-2.586,2.586-2.586l0,0c1.427,0,2.586,1.158,2.586,2.586l-0.003,186.182
		C230.141,360.648,228.983,361.806,227.556,361.806z"/>
	<path style="fill:#D0D1D3;" d="M199.111,361.806L199.111,361.806c-1.427,0-2.586-1.158-2.586-2.586l0.003-186.182
		c0-1.427,1.158-2.586,2.586-2.586l0,0c1.427,0,2.586,1.158,2.586,2.586l-0.003,186.182
		C201.697,360.648,200.538,361.806,199.111,361.806z"/>
	<path style="fill:#D0D1D3;" d="M170.667,361.806L170.667,361.806c-1.427,0-2.586-1.158-2.586-2.586l0.003-186.182
		c0-1.427,1.158-2.586,2.586-2.586l0,0c1.427,0,2.586,1.158,2.586,2.586l-0.003,186.182
		C173.253,360.648,172.094,361.806,170.667,361.806z"/>
	<path style="fill:#D0D1D3;" d="M142.222,361.806L142.222,361.806c-1.427,0-2.586-1.158-2.586-2.586l0.003-186.182
		c0-1.427,1.158-2.586,2.586-2.586l0,0c1.427,0,2.586,1.158,2.586,2.586l-0.003,186.182
		C144.808,360.648,143.65,361.806,142.222,361.806z"/>
	<path style="fill:#D0D1D3;" d="M129.293,344.738c-1.427,0-2.586,1.158-2.586,2.586s1.158,2.586,2.586,2.586l126.995,0.002v-5.172
		L129.293,344.738z"/>
</g>
<path style="fill:#A6A8AA;" d="M382.707,344.741l-126.419-0.002v5.172l126.419,0.002c1.427,0,2.586-1.158,2.586-2.586
	S384.134,344.741,382.707,344.741z"/>
<path style="fill:#D0D1D3;" d="M129.293,317.674c-1.427,0-2.586,1.158-2.586,2.586s1.158,2.586,2.586,2.586l126.995,0.002v-5.172
	L129.293,317.674z"/>
<path style="fill:#A6A8AA;" d="M382.707,317.678l-126.419-0.002v5.172l126.419,0.002c1.427,0,2.586-1.158,2.586-2.586
	S384.134,317.678,382.707,317.678z"/>
<path style="fill:#D0D1D3;" d="M129.293,290.609c-1.427,0-2.586,1.158-2.586,2.586s1.158,2.586,2.586,2.586l126.995,0.002v-5.172
	L129.293,290.609z"/>
<path style="fill:#A6A8AA;" d="M382.707,290.613l-126.419-0.002v5.172l126.419,0.002c1.427,0,2.586-1.158,2.586-2.586
	S384.134,290.613,382.707,290.613z"/>
<path style="fill:#D0D1D3;" d="M129.293,263.544c-1.427,0-2.586,1.158-2.586,2.586s1.158,2.586,2.586,2.586l126.995,0.002v-5.172
	L129.293,263.544z"/>
<g>
	<path style="fill:#A6A8AA;" d="M382.707,263.549l-126.419-0.002v5.172l126.419,0.002c1.427,0,2.586-1.158,2.586-2.586
		S384.134,263.549,382.707,263.549z"/>
	<path style="fill:#A6A8AA;" d="M382.707,236.484l-126.419-0.002v5.172l126.419,0.002c1.427,0,2.586-1.158,2.586-2.586
		S384.134,236.484,382.707,236.484z"/>
</g>
<g>
	<path style="fill:#D0D1D3;" d="M129.293,236.48c-1.427,0-2.586,1.158-2.586,2.586s1.158,2.586,2.586,2.586l126.995,0.002v-5.172
		L129.293,236.48z"/>
	<path style="fill:#D0D1D3;" d="M129.293,209.415c-1.427,0-2.586,1.158-2.586,2.586s1.158,2.586,2.586,2.586l126.995,0.002v-5.172
		L129.293,209.415z"/>
</g>
<path style="fill:#A6A8AA;" d="M382.707,209.418l-126.419-0.002v5.172l126.419,0.002c1.427,0,2.586-1.158,2.586-2.586
	S384.134,209.418,382.707,209.418z"/>
<path style="fill:#D0D1D3;" d="M129.293,182.348c-1.427,0-2.586,1.158-2.586,2.586s1.158,2.586,2.586,2.586l126.995,0.002v-5.172
	L129.293,182.348z"/>
<path style="fill:#A6A8AA;" d="M382.707,182.351l-126.419-0.002v5.172l126.419,0.002c1.427,0,2.586-1.158,2.586-2.586
	S384.134,182.351,382.707,182.351z"/>
<path style="fill:#386895;" d="M398.222,147.682c0-10.869-8.811-19.682-19.682-19.682H133.458c-10.869,0-19.68,8.811-19.68,19.682
	v20.744h284.444V147.682z"/>
<path style="fill:#273B7A;" d="M398.222,147.682c0-10.869-8.811-19.682-19.682-19.682H255.855v40.426h142.367V147.682z"/>
<path style="fill:#808183;" d="M113.988,367.049c1.333,9.575,9.528,16.951,19.47,16.951H378.54c9.942,0,18.137-7.378,19.47-16.951
	L113.988,367.049L113.988,367.049z"/>
<path style="fill:#59595B;" d="M255.857,367.049V384h122.685c9.942,0,18.137-7.378,19.47-16.951L255.857,367.049L255.857,367.049z"
	/>
<path style="fill:#D0D1D3;" d="M373.226,158.599H138.774c-4.046,0-7.327-3.281-7.327-7.327l0,0c0-4.046,3.281-7.327,7.327-7.327
	h234.451c4.046,0,7.327,3.281,7.327,7.327l0,0C380.552,155.319,377.272,158.599,373.226,158.599z"/>
<path style="fill:#A6A8AA;" d="M373.226,143.946H255.857v14.653h117.369c4.046,0,7.327-3.281,7.327-7.327
	S377.272,143.946,373.226,143.946z"/>
<rect x="142.222" y="184.889" style="fill:#D0D1D3;" width="227.556" height="56.889"/>
<rect x="255.862" y="184.889" style="fill:#A6A8AA;" width="113.916" height="56.889"/>
<path style="fill:#59595B;" d="M369.778,245.226h-10.343c-1.903,0-3.448-1.545-3.448-3.448s1.545-3.448,3.448-3.448h6.896v-6.896
	c0-1.903,1.545-3.448,3.448-3.448s3.448,1.545,3.448,3.448v10.343C373.226,243.681,371.681,245.226,369.778,245.226z"/>
<g>
	<path style="fill:#808183;" d="M340.628,245.226h-18.806c-1.903,0-3.448-1.545-3.448-3.448s1.545-3.448,3.448-3.448h18.806
		c1.903,0,3.448,1.545,3.448,3.448S342.531,245.226,340.628,245.226z M303.014,245.226h-18.806c-1.903,0-3.448-1.545-3.448-3.448
		s1.545-3.448,3.448-3.448h18.806c1.903,0,3.448,1.545,3.448,3.448S304.919,245.226,303.014,245.226z M265.402,245.226h-18.806
		c-1.903,0-3.448-1.545-3.448-3.448s1.545-3.448,3.448-3.448h18.806c1.903,0,3.448,1.545,3.448,3.448
		S267.307,245.226,265.402,245.226z M227.792,245.226h-18.806c-1.903,0-3.448-1.545-3.448-3.448s1.545-3.448,3.448-3.448h18.806
		c1.903,0,3.448,1.545,3.448,3.448S229.695,245.226,227.792,245.226z M190.178,245.226h-18.806c-1.903,0-3.448-1.545-3.448-3.448
		s1.545-3.448,3.448-3.448h18.806c1.903,0,3.448,1.545,3.448,3.448S192.083,245.226,190.178,245.226z"/>
	<path style="fill:#808183;" d="M152.566,245.226h-10.343c-1.903,0-3.448-1.545-3.448-3.448v-10.343
		c0-1.903,1.545-3.448,3.448-3.448s3.448,1.545,3.448,3.448v6.896h6.896c1.903,0,3.448,1.545,3.448,3.448
		S154.469,245.226,152.566,245.226z"/>
	<path style="fill:#808183;" d="M142.222,222.815c-1.903,0-3.448-1.545-3.448-3.448V207.3c0-1.903,1.545-3.448,3.448-3.448
		s3.448,1.545,3.448,3.448v12.067C145.67,221.27,144.125,222.815,142.222,222.815z"/>
	<path style="fill:#808183;" d="M142.222,198.68c-1.903,0-3.448-1.545-3.448-3.448v-10.343c0-1.903,1.545-3.448,3.448-3.448h10.343
		c1.903,0,3.448,1.545,3.448,3.448s-1.545,3.448-3.448,3.448h-6.896v6.896C145.67,197.135,144.125,198.68,142.222,198.68z"/>
	<path style="fill:#808183;" d="M340.628,188.337h-18.806c-1.903,0-3.448-1.545-3.448-3.448s1.545-3.448,3.448-3.448h18.806
		c1.903,0,3.448,1.545,3.448,3.448S342.531,188.337,340.628,188.337z M303.014,188.337h-18.806c-1.903,0-3.448-1.545-3.448-3.448
		s1.545-3.448,3.448-3.448h18.806c1.903,0,3.448,1.545,3.448,3.448S304.919,188.337,303.014,188.337z M265.404,188.337h-18.806
		c-1.903,0-3.448-1.545-3.448-3.448s1.545-3.448,3.448-3.448h18.806c1.903,0,3.448,1.545,3.448,3.448
		S267.309,188.337,265.404,188.337z M227.792,188.337h-18.806c-1.903,0-3.448-1.545-3.448-3.448s1.545-3.448,3.448-3.448h18.806
		c1.903,0,3.448,1.545,3.448,3.448S229.695,188.337,227.792,188.337z M190.178,188.337h-18.806c-1.903,0-3.448-1.545-3.448-3.448
		s1.545-3.448,3.448-3.448h18.806c1.903,0,3.448,1.545,3.448,3.448S192.083,188.337,190.178,188.337z"/>
</g>
<g>
	<path style="fill:#59595B;" d="M265.402,238.33H256v6.896h9.402c1.903,0,3.448-1.545,3.448-3.448S267.307,238.33,265.402,238.33z"
		/>
	<path style="fill:#59595B;" d="M303.014,238.33h-18.806c-1.903,0-3.448,1.545-3.448,3.448s1.545,3.448,3.448,3.448h18.806
		c1.903,0,3.448-1.545,3.448-3.448S304.919,238.33,303.014,238.33z"/>
	<path style="fill:#59595B;" d="M340.628,238.33h-18.806c-1.903,0-3.448,1.545-3.448,3.448s1.545,3.448,3.448,3.448h18.806
		c1.903,0,3.448-1.545,3.448-3.448S342.531,238.33,340.628,238.33z"/>
	<path style="fill:#59595B;" d="M265.404,181.441H256v6.896h9.404c1.903,0,3.448-1.545,3.448-3.448S267.307,181.441,265.404,181.441
		z"/>
	<path style="fill:#59595B;" d="M303.014,181.441h-18.806c-1.903,0-3.448,1.545-3.448,3.448s1.545,3.448,3.448,3.448h18.806
		c1.903,0,3.448-1.545,3.448-3.448S304.919,181.441,303.014,181.441z"/>
	<path style="fill:#59595B;" d="M340.628,181.441h-18.806c-1.903,0-3.448,1.545-3.448,3.448s1.545,3.448,3.448,3.448h18.806
		c1.903,0,3.448-1.545,3.448-3.448S342.531,181.441,340.628,181.441z"/>
	<path style="fill:#59595B;" d="M369.778,198.68c-1.903,0-3.448-1.545-3.448-3.448v-6.896h-6.896c-1.903,0-3.448-1.545-3.448-3.448
		s1.545-3.448,3.448-3.448h10.343c1.903,0,3.448,1.545,3.448,3.448v10.343C373.226,197.135,371.681,198.68,369.778,198.68z"/>
	<path style="fill:#59595B;" d="M369.778,222.815c-1.903,0-3.448-1.545-3.448-3.448V207.3c0-1.903,1.545-3.448,3.448-3.448
		s3.448,1.545,3.448,3.448v12.067C373.226,221.27,371.681,222.815,369.778,222.815z"/>
</g>
<rect x="142.222" y="260.31" style="fill:#D0D1D3;" width="56.889" height="85.333"/>
<g>
	<path style="fill:#808183;" d="M199.111,349.091h-10.343c-1.903,0-3.448-1.545-3.448-3.448s1.545-3.448,3.448-3.448h6.896V335.3
		c0-1.903,1.545-3.448,3.448-3.448c1.903,0,3.448,1.545,3.448,3.448v10.343C202.559,347.546,201.014,349.091,199.111,349.091z"/>
	<path style="fill:#808183;" d="M176.7,349.091h-12.067c-1.903,0-3.448-1.545-3.448-3.448s1.545-3.448,3.448-3.448H176.7
		c1.903,0,3.448,1.545,3.448,3.448S178.604,349.091,176.7,349.091z"/>
	<path style="fill:#808183;" d="M152.566,349.091h-10.343c-1.903,0-3.448-1.545-3.448-3.448V335.3c0-1.903,1.545-3.448,3.448-3.448
		s3.448,1.545,3.448,3.448v6.896h6.896c1.903,0,3.448,1.545,3.448,3.448S154.469,349.091,152.566,349.091z"/>
	<path style="fill:#808183;" d="M142.222,317.199c-1.903,0-3.448-1.545-3.448-3.448v-21.549c0-1.903,1.545-3.448,3.448-3.448
		s3.448,1.545,3.448,3.448v21.549C145.67,315.654,144.125,317.199,142.222,317.199z"/>
	<path style="fill:#808183;" d="M142.222,274.101c-1.903,0-3.448-1.545-3.448-3.448V260.31c0-1.903,1.545-3.448,3.448-3.448h10.343
		c1.903,0,3.448,1.545,3.448,3.448s-1.545,3.448-3.448,3.448h-6.896v6.896C145.67,272.556,144.125,274.101,142.222,274.101z"/>
	<path style="fill:#808183;" d="M176.7,263.758h-12.067c-1.903,0-3.448-1.545-3.448-3.448s1.545-3.448,3.448-3.448H176.7
		c1.903,0,3.448,1.545,3.448,3.448S178.604,263.758,176.7,263.758z"/>
	<path style="fill:#808183;" d="M199.111,274.101c-1.903,0-3.448-1.545-3.448-3.448v-6.896h-6.896c-1.903,0-3.448-1.545-3.448-3.448
		s1.545-3.448,3.448-3.448h10.343c1.903,0,3.448,1.545,3.448,3.448v10.343C202.559,272.556,201.014,274.101,199.111,274.101z"/>
	<path style="fill:#808183;" d="M199.111,317.199c-1.903,0-3.448-1.545-3.448-3.448v-21.549c0-1.903,1.545-3.448,3.448-3.448
		c1.903,0,3.448,1.545,3.448,3.448v21.549C202.559,315.654,201.014,317.199,199.111,317.199z"/>
</g>
<rect x="227.556" y="260.31" style="fill:#D0D1D3;" width="142.222" height="85.333"/>
<rect x="255.862" y="260.31" style="fill:#A6A8AA;" width="113.916" height="85.333"/>
<g>
	<path style="fill:#59595B;" d="M369.778,349.091h-10.343c-1.903,0-3.448-1.545-3.448-3.448s1.545-3.448,3.448-3.448h6.896V335.3
		c0-1.903,1.545-3.448,3.448-3.448s3.448,1.545,3.448,3.448v10.343C373.226,347.546,371.681,349.091,369.778,349.091z"/>
	<path style="fill:#59595B;" d="M335.127,349.091H310.82c-1.903,0-3.448-1.545-3.448-3.448s1.545-3.448,3.448-3.448h24.307
		c1.903,0,3.448,1.545,3.448,3.448S337.032,349.091,335.127,349.091z M286.513,349.091h-24.307c-1.903,0-3.448-1.545-3.448-3.448
		s1.545-3.448,3.448-3.448h24.307c1.903,0,3.448,1.545,3.448,3.448S288.418,349.091,286.513,349.091z"/>
</g>
<g>
	<path style="fill:#808183;" d="M237.899,349.091h-10.343c-1.903,0-3.448-1.545-3.448-3.448V335.3c0-1.903,1.545-3.448,3.448-3.448
		s3.448,1.545,3.448,3.448v6.896h6.896c1.903,0,3.448,1.545,3.448,3.448S239.802,349.091,237.899,349.091z"/>
	<path style="fill:#808183;" d="M227.556,317.199c-1.903,0-3.448-1.545-3.448-3.448v-21.549c0-1.903,1.545-3.448,3.448-3.448
		s3.448,1.545,3.448,3.448v21.549C231.003,315.654,229.459,317.199,227.556,317.199z"/>
	<path style="fill:#808183;" d="M227.556,274.101c-1.903,0-3.448-1.545-3.448-3.448V260.31c0-1.903,1.545-3.448,3.448-3.448h10.343
		c1.903,0,3.448,1.545,3.448,3.448s-1.545,3.448-3.448,3.448h-6.896v6.896C231.003,272.556,229.459,274.101,227.556,274.101z"/>
</g>
<g>
	<path style="fill:#59595B;" d="M335.126,263.758h-24.307c-1.903,0-3.448-1.545-3.448-3.448s1.545-3.448,3.448-3.448h24.307
		c1.903,0,3.448,1.545,3.448,3.448S337.03,263.758,335.126,263.758z M286.511,263.758h-24.307c-1.903,0-3.448-1.545-3.448-3.448
		s1.545-3.448,3.448-3.448h24.307c1.903,0,3.448,1.545,3.448,3.448S288.416,263.758,286.511,263.758z"/>
	<path style="fill:#59595B;" d="M369.778,274.101c-1.903,0-3.448-1.545-3.448-3.448v-6.896h-6.896c-1.903,0-3.448-1.545-3.448-3.448
		s1.545-3.448,3.448-3.448h10.343c1.903,0,3.448,1.545,3.448,3.448v10.343C373.226,272.556,371.681,274.101,369.778,274.101z"/>
	<path style="fill:#59595B;" d="M369.778,317.199c-1.903,0-3.448-1.545-3.448-3.448v-21.549c0-1.903,1.545-3.448,3.448-3.448
		s3.448,1.545,3.448,3.448v21.549C373.226,315.654,371.681,317.199,369.778,317.199z"/>
</g>
<g>
</g>
<g>
</g>
<g>
</g>
<g>
</g>
<g>
</g>
<g>
</g>
<g>
</g>
<g>
</g>
<g>
</g>
<g>
</g>
<g>
</g>
<g>
</g>
<g>
</g>
<g>
</g>
<g>
</g>
</svg>
