<?xml version="1.0" encoding="iso-8859-1"?>
<!-- Generator: Adobe Illustrator 19.0.0, SVG Export Plug-In . SVG Version: 6.00 Build 0)  -->
<svg version="1.1" id="Layer_1" xmlns="http://www.w3.org/2000/svg" xmlns:xlink="http://www.w3.org/1999/xlink" x="0px" y="0px"
	 viewBox="0 0 481.882 481.882" style="enable-background:new 0 0 481.882 481.882;" xml:space="preserve">
<rect style="fill:#44C4A1;" width="104.207" height="88.546"/>
<rect x="104.207" style="fill:#EBF0F3;" width="377.675" height="88.546"/>
<rect y="88.546" style="fill:#CE412D;" width="104.207" height="88.546"/>
<rect x="104.207" y="88.546" style="fill:#E1E6E9;" width="377.675" height="88.546"/>
<rect y="215.642" style="fill:#27A2DB;" width="104.207" height="88.546"/>
<rect y="304.791" style="fill:#F6C358;" width="104.207" height="88.546"/>
<rect x="104.207" y="304.791" style="fill:#E1E6E9;" width="377.675" height="88.546"/>
<rect y="393.336" style="fill:#64798A;" width="104.207" height="88.546"/>
<g>
	<rect x="104.207" y="393.336" style="fill:#EBF0F3;" width="377.675" height="88.546"/>
	<polygon style="fill:#EBF0F3;" points="415.624,215.642 391.529,191.548 367.435,215.642 104.207,215.642 104.207,304.791 
		481.882,304.791 481.882,215.642 	"/>
</g>
<g>
	<rect x="262.626" y="35.539" style="fill:#64798A;" width="154.202" height="17.468"/>
	<rect x="262.626" y="124.085" style="fill:#64798A;" width="154.202" height="17.468"/>
	<rect x="262.626" y="251.181" style="fill:#64798A;" width="154.202" height="17.468"/>
	<rect x="262.626" y="340.329" style="fill:#64798A;" width="154.202" height="17.468"/>
	<rect x="262.626" y="428.875" style="fill:#64798A;" width="154.202" height="17.468"/>
</g>
<g>
	<circle style="fill:#EBF0F3;" cx="51.802" cy="44.574" r="22.287"/>
	<circle style="fill:#EBF0F3;" cx="51.802" cy="133.12" r="22.287"/>
	<circle style="fill:#EBF0F3;" cx="51.802" cy="260.216" r="22.287"/>
	<circle style="fill:#EBF0F3;" cx="51.802" cy="348.762" r="22.287"/>
	<circle style="fill:#EBF0F3;" cx="51.802" cy="437.308" r="22.287"/>
</g>
<g>
</g>
<g>
</g>
<g>
</g>
<g>
</g>
<g>
</g>
<g>
</g>
<g>
</g>
<g>
</g>
<g>
</g>
<g>
</g>
<g>
</g>
<g>
</g>
<g>
</g>
<g>
</g>
<g>
</g>
</svg>
